# xmcd CD database file
#
# Track frame offsets:
#	150
#	22278
#	40511
#	62018
#	76709
#	96868
#	111649
#	129647
#	146836
#	174111
#	193338
#	214479
#
# Disc length: 3182 seconds
#
# Revision: 7
# Processed by: cddbd v1.5.1PL2 Copyright (c) Steve Scherf et al.
# Submitted via: CDex 1.51
#
DISCID=b10c6c0c
DTITLE=Cocco - ??????
DYEAR=2006
DGENRE=JPop
TTITLE0=?????
TTITLE1=????
TTITLE2=??
TTITLE3=Beauty C
TTITLE4=????
TTITLE5=Swinging night
TTITLE6=??
TTITLE7=???
TTITLE8=????
TTITLE9=????????
TTITLE10=???????????
TTITLE11=Happy Ending
EXTD=YEAR: 2006
EXTT0=
EXTT1=
EXTT2=
EXTT3=
EXTT4=
EXTT5=
EXTT6=
EXTT7=
EXTT8=
EXTT9=
EXTT10=
EXTT11=
PLAYORDER=
